<svg width="50" height="50" viewBox="0 0 50 50" fill="none" xmlns="http://www.w3.org/2000/svg">
<path d="M35.9992 16.7291C36.0226 15.2512 35.5481 14.7957 34.5945 15.0801C34.4311 15.1292 34.2693 15.1954 34.1138 15.2729C28.3293 18.1561 22.5449 21.0392 16.7628 23.93C16.2601 24.1813 15.7309 24.3826 15.3018 24.8116C14.8422 25.2718 14.9149 25.9428 15.4699 26.1781C16.6479 26.6789 17.8282 27.1779 19.0375 27.5578C20.0607 27.8791 20.9995 27.7487 21.9219 26.9681C24.2974 24.9562 26.7237 23.0322 29.1321 21.078C29.5425 20.7453 29.956 20.4136 30.4399 20.2483C30.5798 20.2001 30.7252 20.1566 30.8393 20.3135C30.9526 20.4694 30.901 20.6433 30.8416 20.8011C30.7455 21.0591 30.6384 21.3171 30.4711 21.5174C29.7606 22.3698 29.0508 23.224 28.3277 24.0613C27.0591 25.5279 25.774 26.9728 24.51 28.4451C24.0754 28.9507 24.0981 29.5895 24.5225 30.113C24.6585 30.2803 24.8086 30.4334 24.9626 30.577C26.6972 32.1892 28.5583 33.5793 30.3718 35.0506C30.9253 35.4995 31.5272 35.8378 32.1947 35.9729C32.774 36.0901 33.2117 35.8255 33.4939 35.2037C33.694 34.7633 33.7362 34.2757 33.7987 33.7976C34.3787 29.392 34.9548 24.9855 35.5263 20.5781C35.7053 19.1984 35.8663 17.8149 35.9992 16.7291Z" fill="white"/>
<path d="M35.9992 16.7291C36.0226 15.2512 35.5481 14.7957 34.5945 15.0801C34.4311 15.1292 34.2693 15.1954 34.1138 15.2729C28.3293 18.1561 22.5449 21.0392 16.7628 23.93C16.2601 24.1813 15.7309 24.3826 15.3018 24.8116C14.8422 25.2718 14.9149 25.9428 15.4699 26.1781C16.6479 26.6789 17.8282 27.1779 19.0375 27.5578C20.0607 27.8791 20.9995 27.7487 21.9219 26.9681C24.2974 24.9562 26.7237 23.0322 29.1321 21.078C29.5425 20.7453 29.956 20.4136 30.4399 20.2483C30.5798 20.2001 30.7252 20.1566 30.8393 20.3135C30.9526 20.4694 30.901 20.6433 30.8416 20.8011C30.7455 21.0591 30.6384 21.3171 30.4711 21.5174C29.7606 22.3698 29.0508 23.224 28.3277 24.0613C27.0591 25.5279 25.774 26.9728 24.51 28.4451C24.0754 28.9507 24.0981 29.5895 24.5225 30.113C24.6585 30.2803 24.8086 30.4334 24.9626 30.577C26.6972 32.1892 28.5583 33.5793 30.3718 35.0506C30.9253 35.4995 31.5272 35.8378 32.1947 35.9729C32.774 36.0901 33.2117 35.8255 33.4939 35.2037C33.694 34.7633 33.7362 34.2757 33.7987 33.7976C34.3787 29.392 34.9548 24.9855 35.5263 20.5781C35.7053 19.1984 35.8663 17.8149 35.9992 16.7291Z" fill="white"/>
</svg>
