<svg width="50" height="50" viewBox="0 0 50 50" fill="none" xmlns="http://www.w3.org/2000/svg">
<path d="M17.6796 16.1098L19.0824 14.7071C19.4729 14.3166 20.1061 14.3166 20.4966 14.7071L23.7139 17.9245C24.1045 18.315 24.1045 18.9482 23.7139 19.3387L21.5269 21.5258C21.1808 21.8718 21.095 22.4005 21.3139 22.8383C22.5792 25.3689 24.6311 27.4208 27.1617 28.6861C27.5995 28.905 28.1282 28.8192 28.4742 28.4731L30.6613 26.2861C31.0518 25.8955 31.685 25.8955 32.0755 26.2861L35.2929 29.5034C35.6834 29.8939 35.6834 30.5271 35.2929 30.9176L33.8902 32.3204C31.7788 34.4317 28.4362 34.6693 26.0475 32.8777L23.5759 31.0241C21.8324 29.7164 20.2836 28.1676 18.9759 26.4241L17.1223 23.9525C15.3307 21.5638 15.5683 18.2212 17.6796 16.1098Z" fill="white"/>
</svg>
