<svg width="50" height="50" viewBox="0 0 50 50" fill="none" xmlns="http://www.w3.org/2000/svg">
<path d="M17.4112 35.9374C17.4177 35.9275 17.3984 35.9572 17.376 36C17.3728 35.9769 17.3664 35.967 17.3696 35.9572C17.61 34.8498 17.8537 33.7425 18.0974 32.6385C18.123 32.5264 18.091 32.4506 18.0172 32.3617C17.719 32.0123 17.4401 31.6465 17.1451 31.2972C16.661 30.7204 16.2987 30.0613 15.9877 29.3758C15.465 28.2257 15.1508 27.0162 15.0418 25.7474C14.936 24.5247 15.0322 23.3251 15.3175 22.1387C15.5195 21.3016 15.8049 20.4909 16.2217 19.7362C16.4686 19.2847 16.7315 18.8398 17.0297 18.4213C17.3151 18.0192 17.6325 17.6369 17.9691 17.2777C19.2933 15.8737 20.8772 14.9114 22.7144 14.3874C23.7308 14.0974 24.7665 13.9722 25.8181 14.0051C27.2129 14.0513 28.5563 14.3611 29.826 14.9543C30.5763 15.3036 31.2945 15.7222 31.9293 16.2659C32.4135 16.6845 32.8976 17.1129 33.3208 17.5941C34.4751 18.9123 35.2638 20.4382 35.6871 22.1651C35.9564 23.2724 36.0494 24.3962 35.9756 25.5299C35.873 27.1183 35.4498 28.6146 34.6963 30.0086C33.9364 31.4191 32.92 32.5923 31.6536 33.5382C31.2977 33.8051 30.9193 34.049 30.5314 34.2665C29.4092 34.8993 28.2132 35.3079 26.9435 35.4826C25.9207 35.621 24.8947 35.6342 23.8815 35.4463C23.2499 35.331 22.6311 35.13 22.0059 34.9718C21.9321 34.952 21.8487 34.9553 21.7718 34.9718C20.8484 35.1926 19.925 35.42 19.0016 35.6441C18.5463 35.7561 18.0878 35.8682 17.6293 35.9703C17.5619 35.9835 17.4946 35.9539 17.4112 35.9374ZM19.4665 22.3265C19.4665 23.2065 19.6941 23.9282 20.1302 24.673C20.5245 25.3453 21.0087 25.9451 21.5409 26.4955C22.3457 27.3326 23.221 28.0807 24.1829 28.7266C25.0679 29.3198 25.9849 29.8339 26.998 30.1668C28.1683 30.5491 29.2937 30.47 30.3678 29.8405C30.5987 29.7054 30.8263 29.5538 31.0091 29.3594C31.1598 29.2012 31.2528 28.9771 31.3426 28.7661C31.6055 28.1466 31.6632 27.6489 30.9514 27.0887C30.3422 26.6141 29.6464 26.3538 28.8962 26.2384C28.5178 26.1791 28.1876 26.2879 27.9343 26.5976C27.8221 26.7361 27.7195 26.8844 27.6104 27.0228C27.3539 27.3523 27.0525 27.5962 26.6101 27.4743C26.4049 27.4182 26.1997 27.3425 26.0201 27.2304C25.5777 26.9536 25.1384 26.6734 24.7216 26.3571C24.0771 25.8693 23.4583 25.3486 22.9517 24.7027C22.6311 24.294 22.5894 23.915 22.8459 23.4899C22.9421 23.3284 23.0607 23.1768 23.1761 23.0252C23.4326 22.6891 23.5673 22.3331 23.407 21.9014C23.1473 21.206 22.7433 20.6161 22.2078 20.1185C21.9994 19.924 21.7718 19.7428 21.4864 19.6769C21.0376 19.5714 20.3482 19.9076 20.0564 20.336C19.63 20.9523 19.4825 21.6411 19.4665 22.3265Z" fill="white"/>
</svg>
